<svg width="575" height="110" viewBox="0 0 575 110" fill="none" xmlns="http://www.w3.org/2000/svg">
<path d="M51.1423 109.23C76.0578 109.23 96.6021 92.3279 100.682 67.4124H89.1711C85.9657 86.0626 70.521 99.4674 51.1423 99.4674C27.9753 99.4674 11.2192 80.5259 11.2192 54.5905C11.2192 28.9465 27.9753 10.0049 51.1423 10.0049C70.3753 10.0049 85.8199 23.264 89.1711 41.9142H100.682C96.6021 16.9987 76.0578 0.242676 51.1423 0.242676C22.0014 0.242676 0 23.8468 0 54.5905C0 85.4798 22.0014 109.23 51.1423 109.23Z" fill="#111111"/>
<path d="M178.121 107.044V97.2819H129.31V2.42824H118.383V107.044H178.121Z" fill="#111111"/>
<path d="M205.293 107.044V2.42824H194.365V107.044H205.293Z" fill="#111111"/>
<path d="M291.74 97.5733H239.869V57.7959H286.349V48.3252H239.869V11.899H290.72V2.42824H228.942V107.044H291.74V97.5733Z" fill="#111111"/>
<path d="M383.288 107.044H394.945V2.42824H384.6V90.4338L324.132 2.42824H312.039V107.044H322.238V17.8729L383.288 107.044Z" fill="#111111"/>
<path d="M455.622 107.044V12.1904H490.737V2.42824H409.726V12.1904H444.84V107.044H455.622Z" fill="#111111"/>
<path d="M575 78.0489C575 62.3128 564.946 55.0276 547.316 51.385L534.057 48.6166C522.401 46.2853 511.91 42.497 511.91 30.1121C511.91 19.6214 520.507 9.85917 536.534 9.85917C551.542 9.85917 561.741 19.9128 562.469 33.7547H573.689C572.523 13.7932 556.787 0.971197 536.388 0.971197C515.553 0.971197 500.836 13.9389 500.836 30.6949C500.836 48.908 515.407 55.319 529.249 58.0874L542.508 60.71C557.37 63.7698 563.489 68.7238 563.489 79.5059C563.489 92.0365 551.833 99.6131 536.971 99.6131C518.904 99.6131 509.579 89.9966 508.559 75.1348H497.485C498.505 94.9506 512.784 108.501 537.117 108.501C561.449 108.501 575 94.6592 575 78.0489Z" fill="#111111"/>
</svg>
