<svg width="1600" height="187" viewBox="0 0 1600 187" fill="none" xmlns="http://www.w3.org/2000/svg">
<path d="M102.317 183.165V166.445H18.7165V3.98597H0V183.165H102.317Z" fill="white"/>
<path d="M237.695 166.944H148.854V98.816H228.462V82.5951H148.854V20.2069H235.948V3.98597H130.138V183.165H237.695V166.944Z" fill="white"/>
<path d="M335.847 183.165V20.706H395.99V3.98597H257.238V20.706H317.38V183.165H335.847Z" fill="white"/>
<path d="M452.036 23.4511C452.036 11.4726 446.046 2.48865 434.567 2.48865C425.833 2.48865 419.594 7.97882 419.594 16.2141C419.594 23.7006 425.333 29.4403 433.07 29.4403C435.066 29.4403 437.062 29.1908 439.059 28.1926C437.562 38.9234 428.328 46.9091 415.351 46.9091V57.1407C437.811 57.8894 452.036 40.6702 452.036 23.4511Z" fill="white"/>
<path d="M606.84 133.504C606.84 106.552 589.621 94.0745 559.425 87.8357L536.716 83.0942C516.752 79.1014 498.784 72.613 498.784 51.401C498.784 33.4332 513.508 16.7132 540.958 16.7132C566.662 16.7132 584.131 33.9323 585.379 57.6398H604.594C602.598 23.4511 575.646 1.49044 540.709 1.49044C505.023 1.49044 479.818 23.7006 479.818 52.3992C479.818 83.5933 504.773 94.5736 528.481 99.3151L551.19 103.807C576.644 109.048 587.126 117.533 587.126 135.999C587.126 157.461 567.161 170.438 541.707 170.438C510.762 170.438 494.791 153.967 493.044 128.513H474.078C475.825 162.452 500.281 185.66 541.957 185.66C583.632 185.66 606.84 161.953 606.84 133.504Z" fill="white"/>
<path d="M771.186 186.908C813.86 186.908 849.047 157.96 856.034 115.287H836.32C830.83 147.229 804.377 170.188 771.186 170.188C731.508 170.188 702.809 137.746 702.809 93.3259C702.809 49.4046 731.508 16.9627 771.186 16.9627C804.127 16.9627 830.58 39.672 836.32 71.6148H856.034C849.047 28.9412 813.86 0.242676 771.186 0.242676C721.276 0.242676 683.593 40.6702 683.593 93.3259C683.593 146.231 721.276 186.908 771.186 186.908Z" fill="white"/>
<path d="M905.068 183.165V112.292H945.994L994.158 183.165H1016.62L965.958 110.046C994.158 105.304 1011.88 85.0906 1011.88 58.1389C1011.88 23.7006 988.169 3.98597 950.237 3.98597H886.351V183.165H905.068ZM905.068 19.7078H948.739C976.19 19.7078 993.16 33.1836 993.16 58.1389C993.16 83.0942 976.19 96.5701 948.739 96.5701H905.068V19.7078Z" fill="white"/>
<path d="M1152.8 166.944H1063.96V98.816H1143.57V82.5951H1063.96V20.2069H1151.06V3.98597H1045.25V183.165H1152.8V166.944Z" fill="white"/>
<path d="M1313.84 183.165H1333.56L1264.18 3.98597H1243.72L1174.09 183.165H1192.56L1211.53 133.504H1295.13L1313.84 183.165ZM1253.45 23.9502L1289.14 118.281H1217.27L1253.45 23.9502Z" fill="white"/>
<path d="M1407.17 183.165V20.706H1467.31V3.98597H1328.56V20.706H1388.7V183.165H1407.17Z" fill="white"/>
<path d="M1600 166.944H1511.16V98.816H1590.77V82.5951H1511.16V20.2069H1598.25V3.98597H1492.44V183.165H1600V166.944Z" fill="white"/>
</svg>
