<svg width="1792" height="194" viewBox="0 0 1792 194" fill="none" xmlns="http://www.w3.org/2000/svg">
<path d="M19.3776 189.384V109.807H94.3045V93.0127H19.3776V20.6695H106.448V3.87553H0V189.384H19.3776Z" fill="#111111"/>
<path d="M255.629 189.384H276.041L204.214 3.87553H183.028L110.943 189.384H130.062L149.698 137.969H236.252L255.629 189.384ZM193.104 24.545L230.051 122.208H155.641L193.104 24.545Z" fill="#111111"/>
<path d="M428.95 137.969C428.95 110.065 411.123 97.1466 379.86 90.6874L356.349 85.7784C335.679 81.6445 317.077 74.9269 317.077 52.9656C317.077 34.363 332.321 17.0523 360.741 17.0523C387.353 17.0523 405.439 34.8798 406.731 59.4248H426.625C424.558 24.0283 396.654 1.29184 360.483 1.29184C323.536 1.29184 297.441 24.2866 297.441 53.999C297.441 86.2951 323.278 97.6633 347.823 102.572L371.334 107.223C397.688 112.649 408.539 121.433 408.539 140.553C408.539 162.772 387.87 176.207 361.516 176.207C329.478 176.207 312.943 159.155 311.134 132.801H291.498C293.307 167.94 318.627 191.968 361.775 191.968C404.922 191.968 428.95 167.423 428.95 137.969Z" fill="#111111"/>
<path d="M484.391 189.384V102.056H589.805V189.384H609.183V3.87553H589.805V85.2616H484.391V3.87553H465.013V189.384H484.391Z" fill="#111111"/>
<path d="M670.345 189.384V3.87553H650.968V189.384H670.345Z" fill="#111111"/>
<path d="M795.216 193.26C848.957 193.26 889.004 150.371 889.004 96.3715C889.004 42.3725 848.957 0 795.216 0C741.475 0 701.687 42.3725 701.687 96.3715C701.687 150.371 741.475 193.26 795.216 193.26ZM795.216 175.949C751.552 175.949 721.581 140.811 721.581 96.3715C721.581 51.9321 751.552 17.3107 795.216 17.3107C839.139 17.3107 868.851 51.9321 868.851 96.3715C868.851 140.811 839.139 175.949 795.216 175.949Z" fill="#111111"/>
<path d="M1046.28 189.384H1066.95V3.87553H1048.6V159.93L941.378 3.87553H919.933V189.384H938.019V31.2626L1046.28 189.384Z" fill="#111111"/>
<path d="M1251.02 189.384H1271.43L1320.26 3.87553H1301.14L1260.84 161.739L1217.95 3.87553H1197.28L1153.87 161.222L1113.82 3.87553H1094.96L1143.8 189.384H1163.95L1207.61 30.2291L1251.02 189.384Z" fill="#111111"/>
<path d="M1459.21 172.59H1367.23V102.056H1449.65V85.2616H1367.23V20.6695H1457.4V3.87553H1347.86V189.384H1459.21V172.59Z" fill="#111111"/>
<path d="M1514.58 189.384V116.007H1556.96L1606.82 189.384H1630.08L1577.63 113.682C1606.82 108.773 1625.17 87.8453 1625.17 59.9415C1625.17 24.2866 1600.62 3.87553 1561.35 3.87553H1495.21V189.384H1514.58ZM1514.58 20.1528H1559.8C1588.22 20.1528 1605.79 34.1047 1605.79 59.9415C1605.79 85.7784 1588.22 99.7303 1559.8 99.7303H1514.58V20.1528Z" fill="#111111"/>
<path d="M1679.09 189.384V102.314L1766.94 189.384H1792L1698.99 96.3715L1789.42 3.87553H1766.94L1679.09 93.2711V3.87553H1659.72V189.384H1679.09Z" fill="#111111"/>
</svg>
