<svg width="59" height="13" viewBox="0 0 59 13" fill="none" xmlns="http://www.w3.org/2000/svg">
<path d="M8.37481 11.196H2.16481V7.128H7.70881V5.4H2.16481V1.728H8.24881V0H0.184814V12.924H8.37481V11.196Z" fill="white"/>
<path d="M12.6765 12.924V8.064H15.0525L18.2745 12.924H20.6505L17.1405 7.776C19.1025 7.308 20.2725 5.886 20.2725 4.032C20.2725 1.458 18.4905 0 15.5205 0H10.6965V12.924H12.6765ZM12.6765 1.656H15.3945C17.2305 1.656 18.2745 2.484 18.2745 4.032C18.2745 5.598 17.2305 6.408 15.3945 6.408H12.6765V1.656Z" fill="white"/>
<path d="M24.5418 12.924V0H22.5618V12.924H24.5418Z" fill="white"/>
<path d="M29.323 12.924V6.93L34.741 12.924H37.225L31.321 6.336L37.081 0H34.795L29.323 5.976V0H27.343V12.924H29.323Z" fill="white"/>
<path d="M40.9597 12.924V6.93L46.3777 12.924H48.8617L42.9577 6.336L48.7177 0H46.4317L40.9597 5.976V0H38.9797V12.924H40.9597Z" fill="white"/>
<path d="M54.1098 8.34C56.5458 8.34 58.3698 6.48 58.3698 4.176C58.3698 1.86 56.5458 0 54.1098 0C51.6858 0 49.8618 1.86 49.8618 4.176C49.8618 6.48 51.6858 8.34 54.1098 8.34ZM54.1098 7.668C52.0698 7.668 50.6418 6.108 50.6418 4.176C50.6418 2.232 52.0698 0.672 54.1098 0.672C56.1618 0.672 57.5898 2.232 57.5898 4.176C57.5898 6.108 56.1618 7.668 54.1098 7.668ZM55.0218 6.288H55.9698L54.8418 4.644C55.4178 4.476 55.8258 4.032 55.8258 3.408C55.8258 2.544 55.2138 2.064 54.2058 2.064H52.5738V6.288H53.3658V4.752H54.0258L55.0218 6.288ZM54.1578 2.712C54.7458 2.712 55.0458 2.976 55.0458 3.408C55.0458 3.852 54.7458 4.104 54.1578 4.104H53.3658V2.712H54.1578Z" fill="white"/>
</svg>
