<svg width="1792" height="169" viewBox="0 0 1792 169" fill="none" xmlns="http://www.w3.org/2000/svg">
<path d="M119.475 120.183C119.475 95.9292 103.979 84.7004 76.805 79.086L56.3686 74.819C38.4025 71.2258 22.233 65.3868 22.233 46.2979C22.233 30.1284 35.483 15.0818 60.1864 15.0818C83.3177 15.0818 99.0381 30.5775 100.161 51.9123H117.453C115.657 21.1453 91.4025 1.38264 59.9618 1.38264C27.8474 1.38264 5.16525 21.3699 5.16525 47.1962C5.16525 75.2682 27.6229 85.1496 48.9576 89.4165L69.394 93.4589C92.3008 98.175 101.733 105.811 101.733 122.429C101.733 141.743 83.7669 153.421 60.8601 153.421C33.0127 153.421 18.6398 138.599 17.0678 115.692H0C1.57203 146.234 23.5805 167.12 61.0847 167.12C98.5889 167.12 119.475 145.785 119.475 120.183Z" fill="#111111"/>
<path d="M247.613 150.277H167.664V88.9673H239.303V74.3699H167.664V18.2259H246.041V3.62841H150.82V164.874H247.613V150.277Z" fill="#111111"/>
<path d="M370.975 164.874V149.827H295.742V3.62841H278.899V164.874H370.975Z" fill="#111111"/>
<path d="M492.804 150.277H412.855V88.9673H484.495V74.3699H412.855V18.2259H491.232V3.62841H396.012V164.874H492.804V150.277Z" fill="#111111"/>
<path d="M593.709 168.243C632.112 168.243 663.777 142.192 670.065 103.789H652.323C647.383 132.535 623.578 153.196 593.709 153.196C558.001 153.196 532.175 124.001 532.175 84.0267C532.175 44.5013 558.001 15.3064 593.709 15.3064C623.353 15.3064 647.158 35.7428 652.323 64.4885H670.065C663.777 26.086 632.112 0.259766 593.709 0.259766C548.794 0.259766 514.883 36.6411 514.883 84.0267C514.883 131.637 548.794 168.243 593.709 168.243Z" fill="#111111"/>
<path d="M747.153 164.874V18.675H801.275V3.62841H676.411V18.675H730.534V164.874H747.153Z" fill="#111111"/>
<path d="M920.683 150.277H840.734V88.9673H912.374V74.3699H840.734V18.2259H919.111V3.62841H823.891V164.874H920.683V150.277Z" fill="#111111"/>
<path d="M997.783 164.874C1048.31 164.874 1077.96 130.065 1077.96 83.5775C1077.96 36.4165 1049.44 3.62841 997.783 3.62841H951.969V164.874H997.783ZM968.813 18.2259H997.334C1038.66 18.2259 1060.89 43.8275 1060.89 83.5775C1060.89 123.552 1038.21 150.277 997.334 150.277H968.813V18.2259Z" fill="#111111"/>
<path d="M1275.5 164.874H1293.24L1335.69 3.62841H1319.07L1284.03 140.844L1246.75 3.62841H1228.79L1191.06 140.395L1156.25 3.62841H1139.86L1182.3 164.874H1199.82L1237.77 26.5352L1275.5 164.874Z" fill="#111111"/>
<path d="M1425.62 168.243C1472.33 168.243 1507.14 130.963 1507.14 84.0267C1507.14 37.0903 1472.33 0.259766 1425.62 0.259766C1378.91 0.259766 1344.32 37.0903 1344.32 84.0267C1344.32 130.963 1378.91 168.243 1425.62 168.243ZM1425.62 153.196C1387.67 153.196 1361.62 122.654 1361.62 84.0267C1361.62 45.3996 1387.67 15.3064 1425.62 15.3064C1463.8 15.3064 1489.62 45.3996 1489.62 84.0267C1489.62 122.654 1463.8 153.196 1425.62 153.196Z" fill="#111111"/>
<path d="M1550.87 164.874V101.094H1587.7L1631.04 164.874H1651.25L1605.66 99.0733C1631.04 94.8063 1646.99 76.6157 1646.99 52.3614C1646.99 21.3699 1625.65 3.62841 1591.52 3.62841H1534.03V164.874H1550.87ZM1550.87 17.7767H1590.17C1614.87 17.7767 1630.14 29.9038 1630.14 52.3614C1630.14 74.819 1614.87 86.9462 1590.17 86.9462H1550.87V17.7767Z" fill="#111111"/>
<path d="M1693.86 164.874V89.1919L1770.22 164.874H1792L1711.15 84.0267L1789.75 3.62841H1770.22L1693.86 81.3317V3.62841H1677.02V164.874H1693.86Z" fill="#111111"/>
</svg>
